# xmcd
#
# Track frame offsets:
#	150
#	20512
#	30837
#	50912
#	64107
#	78357
#	90537
#	110742
#	126817
#	144657
#	153490
#	160700
#	175270
#	186830
#	201800
#	218010
#	237282
#	244062
#	250440
#
# Disc length: 3477 seconds
#
# Revision: 4
# Processed by: cddbd v1.4PL0 Copyright (c) Steve Scherf et al.
# Submitted via: MusicWizard 6.0.1
#
DISCID=060d9313
DTITLE=Various Artist - O Brother, Where Art Thou?
DYEAR=2001
DGENRE=Bluegrass
TTITLE0=James Carter and The Prisoners - Po Lazarus
TTITLE1=Harry McClintock - Big Rock Candy Mountain
TTITLE2=Norman Blake - You Are My Sunshine
TTITLE3=Alison Krauss - Down To The River To Pray
TTITLE4=Soggy Bottom Boys Feat. Dan Tyminski - I Am A Man Of ConstantSorrow
TTITLE5=Chris Thomas King - Hard Time Killing Floor Blues
TTITLE6=Norman Blake - I Am A Man Of Constant Sorrow
TTITLE7=The Whites - Keep On The Sunny Side
TTITLE8=Gillian Welch and Alison Krauss - I'll Fly Away
TTITLE9=Gillian Welch and Alison Krauss and Emmylou Harris - Didn't LeaveNobody But The Baby
TTITLE10=Sarah, Hannah And Leah Peasall - In The Highways
TTITLE11=The Cox Family - I Am Weary (Let Me Rest)
TTITLE12=John Hartford - I Am A Man Of Constant Sorrow
TTITLE13=Ralph Stanley - O Death
TTITLE14=Soggy Bottom Boys Feat. Tim Blake Nelson - In The Jailhouse Now
TTITLE15=Soggy Bottom Boys Feat. Dan Tyminsky - I Am A Man Of Constant Sorrow
TTITLE16=John Hartford - Indian War Whoop
TTITLE17=The Fairfield Four - Lonesome Valley
TTITLE18=The Stanley Brothers - Angel Band
EXTD=(c) 2001 Soundtrack Recording
EXTT0=
EXTT1=
EXTT2=
EXTT3=
EXTT4=
EXTT5=
EXTT6=
EXTT7=
EXTT8=
EXTT9=
EXTT10=
EXTT11=
EXTT12=
EXTT13=
EXTT14=
EXTT15=
EXTT16=
EXTT17=
EXTT18=
PLAYORDER=
